<svg width="47" height="47" viewBox="0 0 47 47" fill="none" xmlns="http://www.w3.org/2000/svg">
<g filter="url(#filter0_di_2_982)">
<circle cx="23.5" cy="23.5" r="17.5" fill="#201E1E"/>
<circle cx="23.5" cy="23.5" r="15.5" stroke="#55EC20" stroke-opacity="0.5" stroke-width="4" stroke-dasharray="2 2"/>
</g>
<path d="M19.8233 15.0849H24.7999C25.0094 15.0849 25.1686 15.2849 25.1202 15.4921L23.6544 19.9599L23.4395 20.6152H28.1182C28.3719 20.6152 28.5287 20.8914 28.4024 21.1074L28.4014 21.1093L22.3175 31.6171C22.2568 31.7219 22.1474 31.7831 22.0313 31.7831C21.8214 31.783 21.6638 31.5853 21.713 31.3779L23.3067 24.6552L23.4522 24.04H18.7169C18.5191 24.04 18.364 23.8648 18.3897 23.666L19.4962 15.3701C19.5183 15.2076 19.6586 15.0849 19.8233 15.0849Z" fill="#201E1E" stroke="#55EC20"/>
<defs>
<filter id="filter0_di_2_982" x="0" y="0" width="47" height="47" filterUnits="userSpaceOnUse" color-interpolation-filters="sRGB">
<feFlood flood-opacity="0" result="BackgroundImageFix"/>
<feColorMatrix in="SourceAlpha" type="matrix" values="0 0 0 0 0 0 0 0 0 0 0 0 0 0 0 0 0 0 127 0" result="hardAlpha"/>
<feOffset/>
<feGaussianBlur stdDeviation="3"/>
<feComposite in2="hardAlpha" operator="out"/>
<feColorMatrix type="matrix" values="0 0 0 0 0 0 0 0 0 0 0 0 0 0 0 0 0 0 0.25 0"/>
<feBlend mode="normal" in2="BackgroundImageFix" result="effect1_dropShadow_2_982"/>
<feBlend mode="normal" in="SourceGraphic" in2="effect1_dropShadow_2_982" result="shape"/>
<feColorMatrix in="SourceAlpha" type="matrix" values="0 0 0 0 0 0 0 0 0 0 0 0 0 0 0 0 0 0 127 0" result="hardAlpha"/>
<feMorphology radius="2" operator="erode" in="SourceAlpha" result="effect2_innerShadow_2_982"/>
<feOffset/>
<feGaussianBlur stdDeviation="4"/>
<feComposite in2="hardAlpha" operator="arithmetic" k2="-1" k3="1"/>
<feColorMatrix type="matrix" values="0 0 0 0 0.358333 0 0 0 0 0.358333 0 0 0 0 0.358333 0 0 0 0.25 0"/>
<feBlend mode="normal" in2="shape" result="effect2_innerShadow_2_982"/>
</filter>
</defs>
</svg>
